<?xml version="1.0" encoding="iso-8859-1"?>
<!-- Generator: Adobe Illustrator 19.0.0, SVG Export Plug-In . SVG Version: 6.00 Build 0)  -->

<svg version="1.1" id="Capa_1" xmlns="http://www.w3.org/2000/svg" xmlns:xlink="http://www.w3.org/1999/xlink" x="0px" y="0px"
	 viewBox="0 0 211.528 211.528" style="enable-background:new 0 0 211.528 211.528;" xml:space="preserve">
	 <style>
	/* <![CDATA[ */
	path,
	rect {
		fill: #43b556;
	}
	/* ]]> */
</style>
<g>
	<g>
		<path d="M183.046,15.028L73.975,0.123c-7.219-0.99-13.904,4.086-14.892,11.312l-2.374,17.374
			c-0.256,1.867,1.051,3.589,2.918,3.843c1.867,0.259,3.589-1.051,3.843-2.918l2.374-17.374c0.48-3.495,3.717-5.956,7.206-5.473
			l109.071,14.904c3.495,0.48,5.951,3.712,5.473,7.206L166.22,185.414c-0.48,3.495-3.71,5.949-7.206,5.473l-7.724-1.055
			c-1.864-0.261-3.589,1.051-3.843,2.92c-0.254,1.867,1.051,3.589,2.92,3.843l7.724,1.055c0.604,0.082,1.205,0.123,1.799,0.123
			c6.504,0,12.191-4.815,13.094-11.436L194.358,29.92C195.346,22.696,190.27,16.016,183.046,15.028z"/>
	</g>
</g>
<g>
	<g>
		<path d="M140.357,27.206H30.272c-7.293,0-13.225,5.934-13.225,13.225v157.872c0,7.293,5.934,13.225,13.225,13.225h110.085
			c7.291,0,13.223-5.932,13.225-13.225V40.431C153.582,33.139,147.648,27.206,140.357,27.206z M146.756,198.305
			c0,3.528-2.871,6.398-6.398,6.398H30.272c-3.528,0-6.398-2.871-6.398-6.398V40.433c0-3.528,2.871-6.398,6.398-6.398h110.085
			c3.528,0,6.398,2.871,6.398,6.398V198.305z"/>
	</g>
</g>
<g>
	<g>
		<path d="M85.314,61.341c-26.349,0-47.787,21.437-47.787,47.787s21.437,47.787,47.787,47.787c26.351,0,47.787-21.437,47.787-47.787
			S111.663,61.341,85.314,61.341z M85.314,150.088c-22.586,0-40.96-18.374-40.96-40.96c0-22.586,18.374-40.96,40.96-40.96
			c22.586,0,40.96,18.374,40.96,40.96C126.274,131.714,107.9,150.088,85.314,150.088z"/>
	</g>
</g>
<g>
	<g>
		<path d="M85.314,61.341c-17.225,0-30.72,20.99-30.72,47.787s13.495,47.787,30.72,47.787s30.72-20.99,30.72-47.787
			S102.539,61.341,85.314,61.341z M85.314,150.088c-12.952,0-23.893-18.758-23.893-40.96c0-22.202,10.941-40.96,23.893-40.96
			s23.893,18.758,23.893,40.96C109.207,131.33,98.266,150.088,85.314,150.088z"/>
	</g>
</g>
<g>
	<g>
		<path d="M129.687,105.715H40.941c-1.884,0-3.413,1.529-3.413,3.413s1.529,3.413,3.413,3.413h88.747
			c1.886,0,3.413-1.529,3.413-3.413S131.571,105.715,129.687,105.715z"/>
	</g>
</g>
<g>
	<g>
		<path d="M85.314,61.341c-1.884,0-3.413,1.529-3.413,3.413v85.333c0,1.884,1.529,3.413,3.413,3.413
			c1.886,0,3.413-1.529,3.413-3.413V64.755C88.727,62.871,87.198,61.341,85.314,61.341z"/>
	</g>
</g>
<g>
	<g>
		<path d="M119.447,167.155h-71.68c-1.884,0-3.413,1.529-3.413,3.413s1.529,3.413,3.413,3.413h71.68
			c1.886,0,3.413-1.529,3.413-3.413S121.331,167.155,119.447,167.155z"/>
	</g>
</g>
<g>
	<g>
		<path d="M85.314,184.221H47.767c-1.884,0-3.413,1.529-3.413,3.413c0,1.884,1.529,3.413,3.413,3.413h37.547
			c1.886,0,3.413-1.529,3.413-3.413C88.727,185.751,87.198,184.221,85.314,184.221z"/>
	</g>
</g>
<g>
</g>
<g>
</g>
<g>
</g>
<g>
</g>
<g>
</g>
<g>
</g>
<g>
</g>
<g>
</g>
<g>
</g>
<g>
</g>
<g>
</g>
<g>
</g>
<g>
</g>
<g>
</g>
<g>
</g>
</svg>
