<?xml version="1.0" encoding="iso-8859-1"?>
<!-- Generator: Adobe Illustrator 19.0.0, SVG Export Plug-In . SVG Version: 6.00 Build 0)  -->
<svg version="1.1" id="Capa_1" xmlns="http://www.w3.org/2000/svg" xmlns:xlink="http://www.w3.org/1999/xlink" x="0px" y="0px"
	 viewBox="0 0 480 480" style="enable-background:new 0 0 480 480;" xml:space="preserve">
	 <style>
	/* <![CDATA[ */
	path,
	rect {
		fill: #43b556;
	}
	/* ]]> */
</style>
<g>
	<g>
		<g>
			<path d="M456,356h-80c-13.255,0-24,10.745-24,24v8h-24c-13.255,0-24,10.745-24,24s10.745,24,24,24h72
				c13.255,0.003,24.002-10.741,24.005-23.995c0.001-2.727-0.464-5.434-1.373-8.005H456c13.255,0,24-10.745,24-24
				S469.255,356,456,356z M456,388h-72c-4.418,0-8,3.582-8,8s3.582,8,8,8h16c4.418,0,8,3.582,8,8s-3.582,8-8,8h-72
				c-4.418,0-8-3.582-8-8s3.582-8,8-8h32c4.418,0,8-3.582,8-8v-16c0-4.418,3.582-8,8-8h80c4.418,0,8,3.582,8,8S460.418,388,456,388z
				"/>
			<path d="M88,100h32c13.255,0,24-10.745,24-24s-10.745-24-24-24H88c-13.255,0-24,10.745-24,24S74.745,100,88,100z M88,68h32
				c4.418,0,8,3.582,8,8s-3.582,8-8,8H88c-4.418,0-8-3.582-8-8S83.582,68,88,68z"/>
			<rect x="368" y="212" width="16" height="16"/>
			<rect x="336" y="212" width="16" height="16"/>
			<rect x="304" y="212" width="16" height="16"/>
			<rect x="272" y="212" width="16" height="16"/>
			<rect x="240" y="212" width="16" height="16"/>
			<rect x="208" y="212" width="16" height="16"/>
			<rect x="176" y="212" width="16" height="16"/>
			<rect x="144" y="212" width="16" height="16"/>
			<path d="M280,372c0.86-0.002,1.713-0.142,2.528-0.416l24-8c3.266-1.088,5.469-4.142,5.472-7.584v-32
				c-0.003-3.442-2.206-6.496-5.472-7.584l-14.088-4.696L309.6,284h138.72c17.496-0.002,31.678-14.188,31.676-31.684
				c-0.002-17.493-14.183-31.674-31.676-31.676h-8.472C436.014,201.67,419.353,188.023,400,188h-75.72l-29.6-44.456l11.88-4
				c3.239-1.094,5.425-4.125,5.44-7.544v-24c-0.003-3.442-2.206-6.496-5.472-7.584l-24-8C281.713,92.142,280.86,92.002,280,92
				h-19.72l-29.6-44.44c-0.088-0.128-0.176-0.256-0.272-0.376l-24-32c-1.516-2.011-3.89-3.19-6.408-3.184h-96v16h67.056
				L184.4,54.696L194,98.04l-21.6,10.8c-2.703,1.362-4.406,4.133-4.4,7.16h-40v16h40c-0.003,3.272,1.987,6.215,5.024,7.432
				l33.16,13.256l7.84,35.312H100.528l-45.672-76.12c-1.446-2.407-4.048-3.879-6.856-3.88H0v16h16.8l6.4,64H8c-4.418,0-8,3.582-8,8
				v32c0.003,3.442,2.206,6.496,5.472,7.584L24,241.76V284c0,4.418,3.582,8,8,8h24c2.758,0,5.322-1.421,6.784-3.76l21.728-34.76
				l113.432,30.248c0.671,0.178,1.362,0.269,2.056,0.272h9.088l-5.192,24.664L166.4,316.16c-3.725,0.76-6.401,4.038-6.4,7.84h-48v16
				h48c-0.017,3.047,1.699,5.838,4.424,7.2l28.376,14.144l-5.384,25.552l-6.4-5.144c-1.424-1.138-3.193-1.756-5.016-1.752H88v16
				h59.056l13.784,27.576c1.355,2.712,4.128,4.425,7.16,4.424h48c2.77-0.001,5.343-1.436,6.8-3.792l33.2-53.6V372H280z M296,329.768
				v20.464L278.704,356h-13.68l18.768-30.304L296,329.768z M278.704,108L296,113.768v12.464l-10.552,3.52L270.944,108H278.704z
				 M188.944,28H196l12,16h-11.056L188.944,28z M184,126.584v-5.64l13.6-6.808l4.36,19.64L184,126.584z M201.976,60h17.744
				l85.328,128H230.4L201.976,60z M43.472,124l38.4,64H39.24l-6.4-64H43.472z M51.568,276H40v-48h41.6L51.568,276z M201.048,268
				L93.376,239.288l9.408-15.048c2.342-3.747,1.203-8.682-2.544-11.024C98.969,212.421,97.499,212,96,212H32c-4.418,0-8,3.582-8,8
				v4.904l-8-2.672V204h384c6.875,0.015,13.427,2.918,18.056,8H400v16h24.576c0,0.216,0.064,0.424,0.064,0.64c0,4.418,3.582,8,8,8
				c0,0,0,0,0,0h15.68c8.66,0.009,15.673,7.036,15.664,15.695c-0.009,8.648-7.017,15.656-15.664,15.664h-128.8l7.296-11.792
				c2.324-3.758,1.162-8.688-2.596-11.012c-1.268-0.784-2.729-1.198-4.22-1.196h-96c-3.784-0.002-7.052,2.649-7.832,6.352
				L212.456,268H201.048z M172.944,412l-8-16h8.248l20,16H172.944z M196.216,345.16L176,335.056v-4.504l24.312-4.856L196.216,345.16
				z M213.952,408.12l-12.536-10.024L230.496,260h75.144L213.952,408.12z"/>
			<rect x="64" y="12" width="24" height="16"/>
			<rect x="56" y="380" width="16" height="16"/>
			<rect y="276" width="16" height="16"/>
			<rect x="272" y="36" width="96" height="16"/>
			<rect x="240" y="36" width="16" height="16"/>
			<rect x="80" y="324" width="16" height="16"/>
			<rect x="8" y="452" width="24" height="16"/>
			<rect x="48" y="452" width="160" height="16"/>
			<rect x="312" y="452" width="56" height="16"/>
			<rect x="392" y="308" width="56" height="16"/>
			<rect x="360" y="308" width="24" height="16"/>
			<rect x="272" y="452" width="24" height="16"/>
			<rect x="368" y="92" width="24" height="16"/>
			<rect x="408" y="92" width="64" height="16"/>
			<rect x="96" y="116" width="16" height="16"/>
		</g>
	</g>
</g>
<g>
</g>
<g>
</g>
<g>
</g>
<g>
</g>
<g>
</g>
<g>
</g>
<g>
</g>
<g>
</g>
<g>
</g>
<g>
</g>
<g>
</g>
<g>
</g>
<g>
</g>
<g>
</g>
<g>
</g>
</svg>
