<?xml version="1.0" encoding="iso-8859-1"?>
<!-- Generator: Adobe Illustrator 19.0.0, SVG Export Plug-In . SVG Version: 6.00 Build 0)  -->
<svg version="1.1" id="Capa_1" xmlns="http://www.w3.org/2000/svg" xmlns:xlink="http://www.w3.org/1999/xlink" x="0px" y="0px"
	 viewBox="0 0 511.997 511.997" style="enable-background:new 0 0 511.997 511.997;" xml:space="preserve">
	 <style>
	/* <![CDATA[ */
	path,
	rect {
		fill: #43b556;
	}
	/* ]]> */
</style>
<g>
	<g>
		<path d="M504.228,236.87l-78.527-76.178V66.398c0-5.523-4.478-10-10-10h-41.668c-5.522,0-10,4.477-10,10v34.472L262.962,2.822
			c-3.879-3.763-10.047-3.763-13.926,0L7.769,236.87c-2.226,2.159-3.323,5.228-2.973,8.308c0.351,3.081,2.109,5.824,4.763,7.428
			l33.018,19.955c3.9,2.357,8.9,1.778,12.16-1.405l15.086-14.735v245.576c0,5.523,4.478,10,10,10h22.926h57.403h72.237h47.221
			h41.633h110.932h0.001c5.522,0,10-4.477,10-10l-0.001-245.576l15.086,14.735c1.92,1.875,4.443,2.846,6.99,2.846
			c1.777,0,3.566-0.473,5.17-1.441l33.018-19.955c2.653-1.604,4.412-4.348,4.763-7.428
			C507.552,242.097,506.454,239.029,504.228,236.87z M384.033,76.398h21.668v64.893l-21.668-21.02V76.398z M92.749,491.998h-2.926
			v-55.751h2.926V491.998z M150.152,491.998h-37.403v-55.751h37.403V491.998z M156.246,373.376c-5.523,0-10,4.477-10,10v32.871
			h-29.59v-32.871c0-5.523-4.478-10-10-10c-5.522,0-10,4.477-10,10v32.871h-6.833v-72.596c0.005-2.548,2.314-4.946,5.366-5.68
			h36.242c0.007,0,0.013,0,0.019,0c0.007,0,0.013,0,0.019,0h36.242c3.056,0.734,5.367,3.137,5.367,5.689v72.587h-6.832v-32.871
			C166.246,377.853,161.768,373.376,156.246,373.376z M89.823,318.711V315.6c0.61,0.917,1.25,1.811,1.918,2.684
			C91.093,318.409,90.451,318.545,89.823,318.711z M101.486,288.008c0-16.522,13.442-29.964,29.965-29.964
			c16.522,0,29.964,13.442,29.964,29.964c0,16.516-13.431,29.953-29.945,29.964h-0.038
			C114.918,317.961,101.486,304.524,101.486,288.008z M269.611,491.998H242.39v-35.387h27.221V491.998z M275.704,403.921
			c-5.522,0-10,4.477-10,10v22.689h-19.408v-22.689c0-5.523-4.478-10-10-10c-5.522,0-10,4.477-10,10v22.689h-6.833v-56.296
			c0-2.552,2.311-4.954,5.366-5.688h62.342c3.056,0.734,5.366,3.137,5.366,5.688v56.296h-6.833v-22.689
			C285.704,408.398,281.226,403.921,275.704,403.921z M230.258,328.884c0-14.194,11.548-25.742,25.742-25.742
			c14.194,0,25.742,11.548,25.742,25.742c0,14.194-11.548,25.742-25.742,25.742C241.806,354.626,230.258,343.078,230.258,328.884z
			 M422.174,491.997h-88.9l10.366-55.75h73.706l4.828,25.982V491.997z M422.175,416.247h-6.888v-32.871c0-5.523-4.478-10-10-10
			c-5.522,0-10,4.477-10,10v32.871h-29.59v-32.871c0-5.523-4.478-10-10-10c-5.522,0-10,4.477-10,10v32.871h-6.833V343.66
			c0-2.551,2.313-4.955,5.369-5.692h36.105v0c0.052,0,0.102,0.004,0.154,0.004s0.102-0.004,0.154-0.004h36.105
			c3.07,0.741,5.406,3.17,5.424,5.692V416.247z M350.528,288.008c0-16.522,13.441-29.964,29.964-29.964
			c16.522,0,29.964,13.442,29.964,29.964c0,16.471-13.358,29.877-29.81,29.96h-0.308
			C363.887,317.884,350.528,304.478,350.528,288.008z M420.204,318.281c0.687-0.9,1.345-1.822,1.971-2.768v3.212
			C421.529,318.553,420.87,318.41,420.204,318.281z M422.175,260.502L422.175,260.502c-8.951-13.52-24.29-22.459-41.683-22.459
			c-27.55,0-49.964,22.414-49.964,49.964c0,11.374,3.828,21.866,10.252,30.273c-12.749,2.463-21.916,12.983-21.916,25.379v82.587
			c0,3.581,1.888,6.713,4.717,8.479l-10.65,57.271H289.61v-35.387h12.927c5.522,0,10-4.477,10-10v-66.296
			c0-11.566-7.98-21.494-19.4-24.773c5.407-7.512,8.605-16.716,8.605-26.657c0-25.222-20.52-45.742-45.742-45.742
			c-25.223,0-45.742,20.52-45.742,45.742c0,9.942,3.198,19.145,8.605,26.657c-11.42,3.28-19.4,13.207-19.4,24.773v66.296
			c0,5.523,4.477,10,10,10h12.927v35.387h-52.237v-55.751h12.927c5.522,0,10-4.477,10-10V343.66
			c0-12.398-9.167-22.917-21.919-25.376c6.426-8.408,10.254-18.901,10.254-30.276c0-27.55-22.414-49.964-49.964-49.964
			c-17.357,0-32.669,8.9-41.628,22.372v-23.528l75.412-73.656h96.703c5.522,0,10-4.477,10-10s-4.478-10-10-10h-76.226l70.287-68.65
			L371.241,187.14H204.502c-5.522,0-10,4.477-10,10c0,5.523,4.478,10,10,10h187.216l30.457,29.747V260.502z M465.699,251.441
			l-26.534-25.915c-0.001-0.001-0.002-0.003-0.004-0.004L262.986,53.45c-1.942-1.897-4.465-2.846-6.987-2.846
			c-2.522,0-5.045,0.949-6.987,2.846L46.299,251.441l-15.296-9.245L255.999,23.932l224.996,218.265L465.699,251.441z"/>
	</g>
</g>
<g>
	<g>
		<path d="M306.868,151.279c-0.13-0.64-0.32-1.27-0.57-1.87c-0.25-0.6-0.56-1.19-0.92-1.73c-0.36-0.55-0.78-1.06-1.24-1.52
			c-0.46-0.46-0.97-0.88-1.52-1.24c-0.54-0.36-1.13-0.67-1.73-0.92c-0.6-0.25-1.229-0.44-1.87-0.57c-1.29-0.26-2.62-0.26-3.91,0
			c-0.63,0.13-1.26,0.32-1.869,0.57c-0.601,0.25-1.181,0.56-1.721,0.92c-0.55,0.36-1.059,0.78-1.52,1.24
			c-1.87,1.86-2.931,4.44-2.931,7.07s1.061,5.21,2.931,7.07c0.461,0.46,0.971,0.88,1.52,1.25c0.54,0.36,1.12,0.67,1.721,0.92
			c0.609,0.25,1.239,0.44,1.869,0.57c0.65,0.13,1.311,0.19,1.96,0.19c0.65,0,1.311-0.06,1.95-0.19c0.641-0.13,1.271-0.32,1.87-0.57
			c0.601-0.25,1.19-0.56,1.73-0.92c0.55-0.37,1.06-0.79,1.52-1.25c0.46-0.46,0.88-0.97,1.24-1.52c0.36-0.54,0.67-1.12,0.92-1.72
			c0.25-0.61,0.44-1.24,0.57-1.87c0.13-0.65,0.199-1.31,0.199-1.96C307.067,152.579,306.998,151.919,306.868,151.279z"/>
	</g>
</g>
<g>
	<g>
		<path d="M176.438,190.069c-0.46-0.46-0.969-0.88-1.509-1.24c-0.55-0.36-1.13-0.67-1.73-0.92c-0.601-0.25-1.23-0.44-1.87-0.57
			c-1.29-0.26-2.62-0.26-3.91,0c-0.64,0.13-1.27,0.32-1.87,0.57s-1.19,0.56-1.73,0.92c-0.539,0.36-1.059,0.78-1.52,1.24
			c-0.46,0.46-0.88,0.97-1.24,1.52c-0.359,0.54-0.67,1.12-0.92,1.73c-0.25,0.6-0.439,1.23-0.57,1.87
			c-0.13,0.64-0.189,1.3-0.189,1.95c0,0.65,0.06,1.31,0.189,1.96c0.131,0.63,0.32,1.26,0.57,1.87c0.25,0.6,0.561,1.18,0.92,1.72
			c0.36,0.55,0.78,1.06,1.24,1.52s0.97,0.88,1.52,1.25c0.54,0.36,1.131,0.67,1.73,0.92c0.6,0.25,1.23,0.44,1.87,0.57
			c0.649,0.13,1.3,0.19,1.96,0.19c0.65,0,1.3-0.06,1.95-0.19c0.64-0.13,1.27-0.32,1.87-0.57c0.6-0.25,1.18-0.56,1.73-0.92
			c0.54-0.37,1.05-0.79,1.51-1.25c0.471-0.46,0.88-0.97,1.25-1.52c0.36-0.54,0.67-1.12,0.92-1.72c0.25-0.61,0.44-1.24,0.57-1.87
			c0.13-0.65,0.19-1.31,0.19-1.96C179.369,194.509,178.308,191.929,176.438,190.069z"/>
	</g>
</g>
<g>
</g>
<g>
</g>
<g>
</g>
<g>
</g>
<g>
</g>
<g>
</g>
<g>
</g>
<g>
</g>
<g>
</g>
<g>
</g>
<g>
</g>
<g>
</g>
<g>
</g>
<g>
</g>
<g>
</g>
</svg>
