<?xml version="1.0" encoding="iso-8859-1"?>
<!-- Generator: Adobe Illustrator 19.0.0, SVG Export Plug-In . SVG Version: 6.00 Build 0)  -->
<svg version="1.1" id="Capa_1" xmlns="http://www.w3.org/2000/svg" xmlns:xlink="http://www.w3.org/1999/xlink" x="0px" y="0px"
	 viewBox="0 0 511.998 511.998" style="enable-background:new 0 0 511.998 511.998;" xml:space="preserve">
	 <style>
	/* <![CDATA[ */
	path,
	rect {
		fill: #43b556;
	}
	/* ]]> */
</style>
<g>
	<g>
		<path d="M145.684,263.486c-6.886-7.894-14.109-9.602-18.955-9.644c-11.474-0.107-19.631,8.558-20.523,9.546
			c-2.777,3.074-2.555,7.837,0.519,10.614c1.44,1.301,3.242,1.944,5.037,1.944c2.036,0,4.062-0.828,5.537-2.461
			c1.225-1.314,5.314-4.694,9.358-4.643c2.591,0.043,5.117,1.516,7.722,4.503c2.723,3.122,7.461,3.445,10.582,0.723
			C148.083,271.345,148.406,266.608,145.684,263.486z"/>
	</g>
</g>
<g>
	<g>
		<path d="M239.434,263.486c-6.885-7.894-14.107-9.602-18.954-9.644c-11.434-0.107-19.631,8.558-20.523,9.546
			c-2.777,3.074-2.555,7.837,0.519,10.614c1.44,1.301,3.242,1.944,5.036,1.944c2.036,0,4.062-0.828,5.537-2.461
			c1.225-1.314,5.274-4.694,9.358-4.643c2.591,0.043,5.117,1.516,7.722,4.503c2.723,3.122,7.46,3.445,10.582,0.723
			C241.833,271.345,242.156,266.608,239.434,263.486z"/>
	</g>
</g>
<g>
	<g>
		<path d="M340.879,478.47c-12.737-23.913-30.834-45.319-52.336-61.907c-3.279-2.529-7.989-1.922-10.52,1.357
			c-2.53,3.28-1.922,7.989,1.357,10.52c19.829,15.296,36.516,35.034,48.257,57.082c0.755,1.419,0.279,2.612-0.072,3.198
			c-0.342,0.569-1.146,1.523-2.7,1.523H18.179c-1.553,0-2.358-0.955-2.7-1.523c-0.352-0.585-0.828-1.779-0.072-3.198
			c30.814-57.856,90.634-93.797,156.116-93.797c30.496,0,60.554,7.89,86.926,22.817c3.605,2.042,8.182,0.773,10.221-2.833
			c2.041-3.605,0.772-8.181-2.833-10.221c-16.249-9.197-33.787-15.925-51.963-20.03v-21.969
			c28.992-12.899,51.115-38.531,59.219-69.754c3.523,1.103,7.214,1.678,10.974,1.678c20.235,0,36.698-16.463,36.698-36.698
			c0-14.63-8.652-27.728-21.837-33.559c-1.994-13.268-5.94-31.471-13.73-49.913c-19.992-47.332-55.595-72.962-102.961-74.118
			c-38.94-0.955-70.805,7.123-94.702,24.013c-3.383,2.391-4.187,7.071-1.796,10.453c2.391,3.383,7.071,4.188,10.453,1.796
			c21.205-14.986,50.03-22.131,85.677-21.267c41.491,1.013,71.555,22.746,89.355,64.593c9.127,21.458,12.625,43.071,13.947,55.234
			l-22.47-5.558c-2.375-0.586-4.885,0.021-6.728,1.626c-1.844,1.607-2.789,4.011-2.531,6.443l0.571,5.396
			c-34.943-8.241-55.886-31.721-56.102-31.967c-1.593-1.831-3.976-2.778-6.384-2.543c-2.414,0.234-4.566,1.622-5.776,3.724
			c-6.595,11.459-9.382,32.581-10.504,45.312c-30.249-13.913-50.4-50.776-50.616-51.177c-1.274-2.375-3.727-3.884-6.421-3.951
			c-2.712-0.076-5.219,1.317-6.611,3.626L90.47,237.942c-2.047-2.109-4.222-4.784-6.426-7.926c-3.253-4.595-5.399-8.548-5.417-8.582
			c-1.021-1.896-2.807-3.261-4.904-3.749c-2.096-0.488-4.302-0.052-6.055,1.199l-7.813,5.573
			c-3.678-27.313,2.497-53.459,17.54-73.073c2.521-3.287,1.9-7.995-1.387-10.516c-3.287-2.52-7.995-1.9-10.516,1.387
			c-16.321,21.28-23.692,48.944-21.185,77.952C30.035,225.4,20.11,239.202,20.11,254.713c0,20.235,16.463,36.698,36.698,36.698
			c4.306,0,8.506-0.765,12.473-2.2c8.211,32.322,31.425,58.717,61.761,71.313v20.5C76.486,392.758,29.107,427.89,2.168,478.47
			c-3.043,5.713-2.874,12.431,0.452,17.97c3.309,5.512,9.126,8.802,15.56,8.802h306.688c6.434,0,12.25-3.291,15.56-8.802
			C343.753,490.9,343.922,484.183,340.879,478.47z M291.653,249.001c2.273,0.561,4.673,0.032,6.496-1.432s2.86-3.695,2.802-6.033
			c-0.002-0.07-0.007-0.24-0.015-0.463c3.048,3.774,4.83,8.547,4.83,13.641c0,11.964-9.734,21.698-21.698,21.698
			c-2.859,0-5.646-0.564-8.241-1.63c0.41-3.766,0.627-7.589,0.627-11.462c0-6.23-0.562-12.409-1.643-18.484L291.653,249.001z
			 M66.057,263.319c0,3.631,0.185,7.22,0.546,10.757c-3.018,1.53-6.349,2.335-9.792,2.335c-11.964,0-21.698-9.734-21.698-21.698
			c0-8.091,4.571-15.385,11.437-19.101c0.239,1.164,0.491,2.328,0.762,3.493c0.566,2.438,2.312,4.434,4.653,5.319
			c2.34,0.885,4.97,0.544,7.008-0.91l10.704-7.635C67.274,244.789,66.057,254.001,66.057,263.319z M198.874,378.706
			c-9.033-1.299-18.172-1.982-27.352-1.982c-8.598,0-17.105,0.576-25.478,1.692v-12.959c8.08,1.995,16.522,3.061,25.21,3.061
			c9.555,0,18.814-1.288,27.62-3.687V378.706z M81.056,263.319c0-4.289,0.3-8.551,0.896-12.758c0.059,0.054,0.117,0.101,0.176,0.152
			c2.329,2.103,4.635,3.768,6.905,4.967c3.519,1.86,7.874,0.647,9.927-2.76l19.145-31.77c10.384,15.409,32.268,42.586,61.915,50.946
			c0.67,0.188,1.354,0.281,2.035,0.281c1.564,0,3.107-0.489,4.401-1.427c1.857-1.346,2.997-3.468,3.093-5.76
			c0.319-7.625,1.877-26.185,5.546-39.23c11.49,9.942,34.203,25.858,65.827,30.458c0,0.001,0,0.002,0,0.002
			c0.092,0.015,0.183,0.03,0.276,0.044c0.17,2.274,0.256,4.561,0.256,6.854c0,49.735-40.463,90.199-90.199,90.199
			C121.519,353.517,81.056,313.055,81.056,263.319z"/>
	</g>
</g>
<g>
	<g>
		<path d="M183.996,436.581h-25.103c-4.142,0-7.5,3.358-7.5,7.5c0,4.142,3.358,7.5,7.5,7.5h25.103c4.142,0,7.5-3.358,7.5-7.5
			C191.495,439.939,188.137,436.581,183.996,436.581z"/>
	</g>
</g>
<g>
	<g>
		<path d="M183.996,456.917h-25.103c-4.142,0-7.5,3.358-7.5,7.5c0,4.142,3.358,7.5,7.5,7.5h25.103c4.142,0,7.5-3.358,7.5-7.5
			C191.495,460.275,188.137,456.917,183.996,456.917z"/>
	</g>
</g>
<g>
	<g>
		<path d="M491.233,48.865c-2.746-3.103-7.485-3.391-10.587-0.646c-3.102,2.745-3.392,7.485-0.646,10.587
			c11.122,12.568,17,27.055,17,41.893c0,35.004-33.042,66.213-80.352,75.896c-1.09,0.223-2.118,0.686-3.007,1.356
			c-25.003,18.822-49.158,26.338-63.532,28.318c6.116-6.345,9.64-13.835,11.646-19.863c0.679-2.039,0.451-4.271-0.627-6.13
			c-1.078-1.859-2.902-3.167-5.008-3.591c-47.578-9.579-80.807-40.825-80.807-75.986c0-43.529,49.724-78.943,110.844-78.943
			c27.987,0,54.734,7.505,75.315,21.134c3.454,2.287,8.107,1.341,10.394-2.113c2.287-3.454,1.341-8.107-2.113-10.394
			c-23.009-15.236-52.697-23.627-83.597-23.627c-33.189,0-64.478,9.504-88.105,26.762c-24.336,17.776-37.738,41.634-37.738,67.181
			c0,40.02,34.031,75.499,83.836,88.602c-2.509,4.399-6.175,8.763-11.501,11.624c-6.219,3.34-7.457,7.438-7.399,10.287
			c0.035,1.709,0.673,5.955,5.845,8.471c2.536,1.233,6.669,1.98,12.061,1.98c17.073,0,46.745-7.488,78.157-30.72
			c25.065-5.415,47.69-16.792,63.857-32.139c17.552-16.663,26.83-36.753,26.83-58.103C512,82.142,504.819,64.218,491.233,48.865z"/>
	</g>
</g>
<g>
	<g>
		<path d="M359.741,54.575h-39.645c-4.142,0-7.5,3.358-7.5,7.5c0,4.142,3.358,7.5,7.5,7.5h39.645c4.142,0,7.5-3.358,7.5-7.5
			C367.241,57.933,363.883,54.575,359.741,54.575z"/>
	</g>
</g>
<g>
	<g>
		<path d="M430.688,82.204H320.096c-4.142,0-7.5,3.358-7.5,7.5s3.358,7.5,7.5,7.5h110.592c4.142,0,7.5-3.358,7.5-7.5
			S434.83,82.204,430.688,82.204z"/>
	</g>
</g>
<g>
	<g>
		<path d="M430.688,131.709H320.096c-4.142,0-7.5,3.358-7.5,7.5c0,4.142,3.358,7.5,7.5,7.5h110.592c4.142,0,7.5-3.358,7.5-7.5
			C438.188,135.067,434.83,131.709,430.688,131.709z"/>
	</g>
</g>
<g>
	<g>
		<path d="M430.688,106.936H320.096c-4.142,0-7.5,3.358-7.5,7.5c0,4.142,3.358,7.5,7.5,7.5h110.592c4.142,0,7.5-3.358,7.5-7.5
			C438.188,110.294,434.83,106.936,430.688,106.936z"/>
	</g>
</g>
<g>
</g>
<g>
</g>
<g>
</g>
<g>
</g>
<g>
</g>
<g>
</g>
<g>
</g>
<g>
</g>
<g>
</g>
<g>
</g>
<g>
</g>
<g>
</g>
<g>
</g>
<g>
</g>
<g>
</g>
</svg>
